PathFileType	4	(X/Y/Z)	Kaydara																																																																																																																									
DataRate	CameraRate	NumFrames	NumMarkers	Units	OrigDataRate	OrigDataStartFrame	OrigNumFrames																																																																																																																					
30	30	4	41	mm	30	29	104																																																																																																																					
Frame#	Time	EMLA_LFHD			EMLA_RFHD			EMLA_LBHD			EMLA_RBHD			EMLA_LFTShould			EMLA_RFTShould			EMLA_LRRShould			EMLA_RRRShould			EMLA_T10			EMLA_STRN			EMLA_TRUN			EMLA_LSHO			EMLA_LUPA			EMLA_LELB			EMLA_LFRM			EMLA_LWRA			EMLA_LWRB			EMLA_LFIN			EMLA_RSHO			EMLA_RUPA			EMLA_RELB			EMLA_RFRM			EMLA_RWRA			EMLA_RWRB			EMLA_RFIN			EMLA_LFWT			EMLA_RFWT			EMLA_LBWT			EMLA_RBWT			EMLA_LTHI			EMLA_LKNE			EMLA_LSHN			EMLA_LANK			EMLA_LHEE			EMLA_LTOE			EMLA_RTHI			EMLA_RKNE			EMLA_RSHN			EMLA_RANK			EMLA_RHEE			EMLA_RTOE		
		X1	Y1	Z1	X2	Y2	Z2	X3	Y3	Z3	X4	Y4	Z4	X5	Y5	Z5	X6	Y6	Z6	X7	Y7	Z7	X8	Y8	Z8	X9	Y9	Z9	X10	Y10	Z10	X11	Y11	Z11	X12	Y12	Z12	X13	Y13	Z13	X14	Y14	Z14	X15	Y15	Z15	X16	Y16	Z16	X17	Y17	Z17	X18	Y18	Z18	X19	Y19	Z19	X20	Y20	Z20	X21	Y21	Z21	X22	Y22	Z22	X23	Y23	Z23	X24	Y24	Z24	X25	Y25	Z25	X26	Y26	Z26	X27	Y27	Z27	X28	Y28	Z28	X29	Y29	Z29	X30	Y30	Z30	X31	Y31	Z31	X32	Y32	Z32	X33	Y33	Z33	X34	Y34	Z34	X35	Y35	Z35	X36	Y36	Z36	X37	Y37	Z37	X38	Y38	Z38	X39	Y39	Z39	X40	Y40	Z40	X41	Y41	Z41
																																																																																																																												
14	0.933	266.13573	1630.98343	-1926.68686	96.69239	1624.69894	-1933.11676	285.31717	1633.36517	-2077.39029	90.7427	1629.35669	-2086.02966	271.76651	1403.99841	-1998.09708	121.52017	1395.58243	-1989.11804	257.75299	1449.00925	-2146.77338	100.04753	1440.72205	-2136.80145	188.89236	1273.16147	-2185.55969	198.25417	1335.39276	-1954.35471	193.61572	1232.71767	-1930.87708	394.3795	1422.70218	-2056.75049	448.6256	1238.08884	-2063.18558	464.48074	1094.7496	-2054.52744	462.09587	959.87473	-2037.04056	374.80446	823.55156	-1950.26672	433.61374	799.80988	-2006.43417	425.41862	771.03256	-1942.97424	-4.72794	1424.21005	-2047.42996	-61.07889	1229.10912	-2034.14993	-76.74098	1085.27092	-2041.22543	-77.06857	982.96165	-2036.88553	3.47662	832.88574	-1928.77563	-50.25842	807.27623	-1989.53781	-55.41521	781.71516	-1930.02884	295.13193	995.13901	-1953.96896	59.76501	982.07214	-1967.0961	273.46899	1015.41191	-2154.34616	97.12714	1016.78398	-2148.84735	319.71731	730.33585	-2140.186	324.96437	524.91047	-2099.50043	300.0951	342.55058	-2088.20572	301.81406	165.08005	-2158.63693	235.80254	84.70433	-2215.56976	271.60486	74.24159	-2017.9213	64.22892	712.39014	-2156.19095	27.81867	512.54177	-2096.25015	67.06362	289.41431	-2091.48392	27.32672	130.17423	-2171.94733	82.19331	77.9951	-2226.12595	49.34277	72.08731	-2024.71024
15	0.967	265.98545	1631.0173	-1926.15845	96.46484	1624.52499	-1932.71652	285.13741	1633.37357	-2076.8219	90.62947	1629.27765	-2085.59875	271.84322	1403.89923	-1997.49817	121.40044	1395.51178	-1988.8063	257.66504	1449.02832	-2146.4003	99.93933	1440.72906	-2136.35132	188.76276	1273.21815	-2185.20538	198.42518	1335.09125	-1953.76556	193.70319	1232.69501	-1930.69382	394.32354	1422.79114	-2056.4119	448.65685	1238.15979	-2062.43362	464.58324	1094.80782	-2053.80554	462.24281	959.9382	-2036.19659	374.97902	823.68645	-1949.3634	433.8739	799.9012	-2005.44205	425.67287	771.19362	-1941.89713	-4.81353	1424.23111	-2046.95175	-61.22376	1229.14383	-2033.38791	-77.05464	1085.47417	-2040.65033	-77.33191	982.99339	-2036.15372	3.33264	832.84615	-1928.13507	-50.53098	807.27348	-1988.82278	-55.56581	781.73355	-1929.32983	295.01131	995.01625	-1953.79868	59.69901	982.0787	-1966.82953	273.29105	1015.36308	-2154.19998	96.9279	1016.73119	-2148.64441	319.84556	730.33211	-2139.98199	324.9144	524.92134	-2099.2041	299.99485	342.44888	-2087.97989	301.84031	165.04358	-2158.59726	235.81055	84.69224	-2215.64346	271.56748	74.22606	-2017.91046	64.06612	712.41966	-2156.36551	27.74305	512.48493	-2096.09421	67.07209	289.35448	-2091.42548	27.32296	130.13318	-2171.95114	82.15006	77.91598	-2226.14197	49.37213	72.08618	-2024.73511
16	1	265.72918	1630.87723	-1925.5365	96.42038	1624.36615	-1932.1434	285.07587	1633.29788	-2076.2027	90.52186	1629.20883	-2085.16235	271.80523	1403.77426	-1997.06055	121.30685	1395.50156	-1988.36136	257.54019	1449.03015	-2145.94971	99.82204	1440.74173	-2135.88257	188.6273	1273.27858	-2184.88525	197.8126	1335.2066	-1953.75015	193.49577	1232.60536	-1930.18204	394.18018	1422.76764	-2056.01639	448.60157	1238.15346	-2062.00394	464.64008	1094.84268	-2053.21823	462.39292	959.98283	-2035.54321	375.14725	823.65356	-1948.54279	434.06994	799.90639	-2004.60648	425.96428	771.27106	-1941.11908	-4.94063	1424.2308	-2046.38641	-61.37691	1229.0596	-2032.71561	-77.22954	1085.47768	-2040.15839	-77.53491	982.97272	-2035.66437	2.95207	832.74368	-1927.62909	-50.70836	807.28012	-1988.30276	-55.82082	781.75949	-1928.80417	294.8844	994.9086	-1953.53561	59.5843	981.99013	-1966.56387	273.19452	1015.31784	-2153.9534	96.83103	1016.72249	-2148.42499	319.91138	730.3569	-2139.81842	324.84585	524.84966	-2098.95386	299.89828	342.35245	-2087.83966	301.8371	164.97923	-2158.54202	235.85739	84.62804	-2215.6282	271.53912	74.23115	-2017.94067	63.70817	712.51266	-2156.55518	27.58826	512.44865	-2096.01242	66.96923	289.30607	-2091.40228	27.22712	130.11996	-2171.96533	82.07904	77.93488	-2226.20972	49.36734	72.0851	-2024.73358
17	1.033	265.56046	1630.65155	-1924.93362	96.30151	1624.23813	-1931.56921	285.00113	1633.30307	-2075.58685	90.45885	1629.27643	-2084.63165	271.30384	1403.85391	-1996.8718	121.21418	1395.53513	-1987.77603	257.36044	1448.9859	-2145.51178	99.65794	1440.70862	-2135.44846	188.47042	1273.21426	-2184.45618	197.72051	1335.13123	-1953.22464	193.44376	1232.65778	-1929.78531	394.0509	1422.71622	-2055.64331	448.50029	1238.14209	-2061.64398	464.63039	1094.83269	-2052.81509	462.43523	959.95369	-2034.99405	375.32482	823.69713	-1947.89993	434.24343	799.93164	-2004.05304	426.25111	771.34399	-1940.49698	-5.07848	1424.23721	-2045.98877	-61.64196	1229.2424	-2032.65381	-77.4358	1085.53604	-2039.86206	-77.76324	982.94609	-2035.29968	2.73853	832.76741	-1927.22336	-50.94627	807.26227	-1987.98248	-56.04121	781.70792	-1928.47046	294.77064	994.45137	-1953.16971	59.33978	981.85173	-1966.28952	273.09675	1015.20546	-2153.45169	96.76658	1016.6861	-2148.07831	319.89656	730.36057	-2139.60999	324.69387	524.79454	-2098.9772	299.77552	342.37434	-2087.93289	301.79279	164.96178	-2158.55896	235.80341	84.55021	-2215.68237	271.50553	74.26182	-2017.99805	63.53027	712.60986	-2156.96335	27.47674	512.39704	-2095.92438	66.94298	289.27162	-2091.35666	27.21891	130.06068	-2171.94992	82.02011	77.90531	-2226.2149	49.35359	72.09352	-2024.74564
